<svg width="16" height="24" viewBox="0 0 16 24" fill="none" xmlns="http://www.w3.org/2000/svg">
<path d="M8.07272 5.24878C6.46276 5.24878 5.15234 6.56315 5.15234 8.17798C5.15234 9.7928 6.46276 11.1072 8.07272 11.1072C9.68269 11.1072 10.9931 9.7928 10.9931 8.17798C10.9931 6.56315 9.68269 5.24878 8.07272 5.24878ZM8.07272 10.2703C6.92251 10.2703 5.98674 9.33166 5.98674 8.17798C5.98674 7.02429 6.92251 6.08569 8.07272 6.08569C9.22294 6.08569 10.1587 7.02429 10.1587 8.17798C10.1587 9.33166 9.22294 10.2703 8.07272 10.2703Z" fill="#BE9452"/>
<path d="M13.658 2.578C12.1469 1.06236 10.1377 0.227539 8.00081 0.227539C5.8635 0.227539 3.85469 1.06236 2.34359 2.578C-0.452891 5.38248 -0.800418 10.6592 1.59097 13.8562L8.00081 23.1409L14.4011 13.8692C16.802 10.6592 16.4545 5.38248 13.658 2.578ZM13.7244 13.38L8.00081 21.6704L2.26808 13.367C0.0990631 10.4663 0.409876 5.70093 2.93393 3.16969C4.28732 1.81223 6.0867 1.06445 8.00081 1.06445C9.91492 1.06445 11.7143 1.81223 13.0681 3.16969C15.5922 5.70093 15.903 10.4663 13.7244 13.38Z" fill="#BE9452"/>
</svg>
